<svg xmlns="http://www.w3.org/2000/svg" viewBox="0 0 100 100">
  <circle cx="50" cy="50" r="48" fill="#2563eb"/>
  <g fill="#1e3a8a" stroke="#1e3a8a" stroke-width="2">
    <polygon points="50,10 62,25 50,35 38,25"/>
    <polygon points="25,30 38,25 35,42 20,45"/>
    <polygon points="75,30 62,25 65,42 80,45"/>
    <polygon points="20,65 35,58 35,42 20,45"/>
    <polygon points="80,65 65,58 65,42 80,45"/>
    <polygon points="35,85 50,75 65,85 50,95"/>
    <polygon points="35,58 50,55 65,58 65,75 50,75 35,75"/>
    <polygon points="35,42 50,35 65,42 65,58 50,55 35,58"/>
  </g>
  <circle cx="50" cy="50" r="48" fill="none" stroke="#1e40af" stroke-width="3"/>
</svg>
